<?xml version="1.0" standalone="no"?>
<!DOCTYPE svg PUBLIC "-//W3C//DTD SVG 20010904//EN"
 "http://www.w3.org/TR/2001/REC-SVG-20010904/DTD/svg10.dtd">
<svg version="1.0" xmlns="http://www.w3.org/2000/svg"
 width="200.000000pt" height="200.000000pt" viewBox="0 0 200.000000 200.000000"
 preserveAspectRatio="xMidYMid meet">

<g transform="translate(0.000000,200.000000) scale(0.100000,-0.100000)"
fill="#000000" stroke="none">
<path d="M307 1335 c-89 -34 -172 -122 -197 -209 -18 -65 -9 -171 18 -228 29
-60 90 -120 150 -150 67 -33 207 -33 270 0 66 35 119 88 149 150 37 75 39 191
6 263 -29 64 -87 126 -147 156 -63 33 -188 41 -249 18z m220 -81 c53 -25 94
-69 119 -129 16 -40 19 -132 3 -172 -71 -189 -321 -225 -439 -62 -102 142 -20
355 151 388 58 11 103 5 166 -25z"/>
<path d="M270 1190 c-12 -12 -20 -33 -20 -55 0 -31 3 -35 25 -35 21 0 25 5 25
30 0 23 4 30 20 30 17 0 20 -7 20 -41 0 -33 -7 -51 -33 -83 -47 -58 -57 -79
-57 -125 l0 -41 75 0 c73 0 75 1 75 25 0 23 -3 25 -50 25 -27 0 -50 3 -50 6 0
12 25 51 58 92 44 54 57 139 27 172 -25 27 -88 27 -115 0z"/>
<path d="M446 1188 c-19 -26 -21 -109 -4 -126 9 -9 9 -15 0 -24 -7 -7 -12 -38
-12 -70 0 -72 21 -98 78 -98 55 0 72 23 72 96 0 33 -5 65 -12 72 -9 9 -9 15 0
24 20 20 15 112 -6 131 -28 26 -97 22 -116 -5z m84 -74 c0 -41 -2 -45 -22 -42
-40 5 -38 88 2 88 17 0 20 -6 20 -46z m-2 -141 c-3 -40 -6 -48 -23 -48 -15 0
-21 8 -23 33 -5 45 3 62 28 62 19 0 21 -5 18 -47z"/>
<path d="M819 1081 c-21 -17 -24 -28 -24 -89 0 -78 8 -92 83 -144 41 -28 42
-30 42 -84 0 -54 0 -55 -27 -52 -25 3 -28 7 -31 46 -3 42 -4 43 -35 40 -32 -3
-32 -4 -32 -55 1 -75 21 -93 100 -93 84 0 95 13 95 112 0 84 -2 89 -83 152
-45 36 -48 41 -45 80 3 36 6 41 30 44 25 3 27 0 30 -40 3 -40 5 -43 36 -46
l32 -3 0 55 c0 75 -20 96 -94 96 -38 0 -61 -6 -77 -19z"/>
<path d="M1014 1086 c-12 -31 1 -51 34 -54 l32 -3 0 -190 0 -189 35 0 35 0 0
190 0 190 30 0 c28 0 30 3 30 35 l0 35 -95 0 c-74 0 -97 -3 -101 -14z"/>
<path d="M1255 1075 c-25 -24 -25 -27 -25 -198 0 -161 2 -176 21 -201 18 -23
27 -26 84 -26 57 0 66 3 84 26 19 25 21 40 21 201 0 171 0 174 -25 198 -20 21
-34 25 -80 25 -46 0 -60 -4 -80 -25z m110 -200 l0 -160 -30 0 -30 0 -3 150
c-1 82 0 155 3 163 3 8 16 12 32 10 l28 -3 0 -160z"/>
<path d="M1490 875 l0 -225 30 0 30 0 1 138 1 137 32 -135 32 -135 37 -3 37
-3 0 225 0 226 -30 0 -30 0 -1 -127 -1 -128 -31 128 -30 127 -39 0 -38 0 0
-225z"/>
<path d="M1740 875 l0 -225 80 0 80 0 0 30 c0 29 -2 30 -45 30 l-45 0 0 70 0
70 45 0 c43 0 45 1 45 30 0 29 -2 30 -45 30 l-45 0 0 60 0 60 45 0 c45 0 45 0
45 35 l0 35 -80 0 -80 0 0 -225z"/>
</g>
</svg>
